<svg width="200" height="298" viewBox="0 0 200 298" fill="none" xmlns="http://www.w3.org/2000/svg">
<g opacity="0.35">
<path d="M192.5 99.7305C192.5 109.599 188.704 123.586 182.003 140.213C175.386 156.628 166.264 174.84 156.321 192.88C136.443 228.948 113.586 263.791 101.78 281.278C100.877 282.615 99.1231 282.615 98.2204 281.278C86.4142 263.791 63.5566 228.948 43.6786 192.88C33.736 174.84 24.6141 156.628 17.9973 140.213C11.2956 123.586 7.5 109.599 7.5 99.7305C7.5 48.8121 48.8946 7.5 100 7.5C151.105 7.5 192.5 48.8121 192.5 99.7305Z" stroke="#D23A71" stroke-width="15"/>
<path d="M171.428 84.4275C171.428 92.3854 168.627 102.109 163.579 112.951C158.579 123.689 151.64 134.966 143.986 145.877C128.678 167.695 110.945 187.43 101.434 197.551C100.618 198.419 99.3811 198.419 98.5654 197.551C89.0545 187.43 71.3214 167.695 56.0136 145.877C48.3588 134.966 41.4204 123.689 36.4203 112.951C31.3719 102.109 28.571 92.3854 28.571 84.4275C28.571 41.4578 61.0185 7.5 99.9996 7.5C138.981 7.5 171.428 41.4578 171.428 84.4275Z" stroke="#D23A71" stroke-width="15"/>
<path d="M143.572 54.5417C143.572 58.8409 142.13 64.3003 139.276 70.6763C136.46 76.965 132.495 83.6532 127.986 90.2702C118.969 103.505 108.193 115.857 101.339 123.291C100.921 123.745 100.442 123.913 100 123.913C99.5587 123.913 99.0796 123.745 98.6615 123.291C91.8082 115.857 81.0314 103.505 72.0143 90.2702C67.5059 83.6532 63.5407 76.965 60.7251 70.6763C57.8704 64.3003 56.429 58.8409 56.429 54.5417C56.429 28.0892 76.3934 7.5 100 7.5C123.607 7.5 143.572 28.0892 143.572 54.5417Z" stroke="#D23A71" stroke-width="15"/>
</g>
<path d="M197.5 99.7305C197.5 110.606 193.389 125.338 186.64 142.082C179.919 158.756 170.694 177.162 160.7 195.294C140.716 231.554 117.763 266.539 105.924 284.076C103.038 288.349 96.9615 288.349 94.0765 284.076C82.237 266.539 59.2837 231.554 39.2996 195.294C29.3064 177.162 20.0807 158.756 13.3599 142.082C6.61071 125.338 2.5 110.606 2.5 99.7305C2.5 46.0379 46.1459 2.5 100 2.5C153.854 2.5 197.5 46.0379 197.5 99.7305Z" stroke="#CC2045" stroke-width="5"/>
<path d="M176.428 84.4275C176.428 93.4362 173.295 103.93 168.112 115.061C162.945 126.158 155.831 137.698 148.079 148.748C132.574 170.848 114.658 190.78 105.078 200.975C102.287 203.944 97.7121 203.944 94.9217 200.975C85.3411 190.78 67.4253 170.848 51.9205 148.748C44.1678 137.698 37.0545 126.158 31.8876 115.061C26.7046 103.93 23.571 93.4362 23.571 84.4275C23.571 39.0189 57.9452 2.5 99.9996 2.5C142.054 2.5 176.428 39.0189 176.428 84.4275Z" stroke="#CC2045" stroke-width="5"/>
<path d="M148.572 54.5417C148.572 59.8413 146.829 66.0413 143.839 72.7195C140.862 79.3685 136.726 86.3232 132.119 93.0856C122.904 106.61 111.942 119.167 105.016 126.68C102.271 129.657 97.7299 129.657 94.9852 126.68C88.0591 119.167 77.0972 106.61 67.8822 93.0855C63.2748 86.3232 59.1385 79.3685 56.1616 72.7195C53.1717 66.0413 51.429 59.8413 51.429 54.5417C51.429 25.6425 73.3274 2.5 100 2.5C126.673 2.5 148.572 25.6425 148.572 54.5417Z" stroke="#CC2045" stroke-width="5"/>
</svg>
